<svg xmlns="http://www.w3.org/2000/svg" xmlns:xlink="http://www.w3.org/1999/xlink" viewBox="0 0 1600 647.1"><defs><style>.a{fill:url(#a);}</style><linearGradient id="a" x1="1091.06" y1="164.96" x2="148.14" y2="628.43" gradientUnits="userSpaceOnUse"><stop offset="0" stop-color="#2aa9ff"/><stop offset="1" stop-color="#3fffec"/></linearGradient></defs><path class="a" d="M260.6,587.5c33.3,0,71.7,1.3,103.1,8.8s56.1,15,90.4,13.4,64.4-9.6,96.6-14.8c71.4-11.6,148.2-8.6,216.9,8.5,30.3,7.6,56,15.2,89.5,12.1,30.5-2.8,59.1-11.6,88.6-17,59.2-11,122.4-12.6,182.8-5s111.8,27.1,175,23c55.4-3.6,108.5-17.5,164.7-16.2h3.2A698.2,698.2,0,0,1,1600,616V334s-200-152-482-152S800,0,800,0H0V647.1C71.3,609.8,161.9,587.5,260.6,587.5Z"/></svg>